<svg width="211" height="79" viewBox="0 0 211 79" fill="none" xmlns="http://www.w3.org/2000/svg">
<path d="M67.5 35.1699C70.8333 37.0944 70.8333 41.9056 67.5 43.8301L29.25 65.9138C25.9167 67.8383 21.75 65.4327 21.75 61.5836L21.75 17.4163C21.75 13.5673 25.9167 11.1617 29.25 13.0862L67.5 35.1699Z" stroke="white" stroke-width="4"/>
<path d="M133.11 35.1699C136.444 37.0944 136.444 41.9056 133.11 43.8301L94.8603 65.9138C91.527 67.8383 87.3603 65.4327 87.3603 61.5836L87.3604 17.4163C87.3604 13.5673 91.527 11.1617 94.8604 13.0862L133.11 35.1699Z" fill="white" stroke="white" stroke-width="4"/>
<path d="M198.721 35.1699C202.054 37.0944 202.054 41.9056 198.721 43.8301L160.471 65.9138C157.137 67.8383 152.971 65.4327 152.971 61.5836L152.971 17.4163C152.971 13.5673 157.137 11.1617 160.471 13.0862L198.721 35.1699Z" stroke="white" stroke-width="4"/>
</svg>
