<svg width="118" height="118" viewBox="0 0 118 118" fill="none" xmlns="http://www.w3.org/2000/svg">
<path fill-rule="evenodd" clip-rule="evenodd" d="M4 2C4 3.10457 3.10457 4 2 4C0.895431 4 0 3.10457 0 2C0 0.895431 0.895431 0 2 0C3.10457 0 4 0.895431 4 2ZM23 2C23 3.10457 22.1046 4 21 4C19.8954 4 19 3.10457 19 2C19 0.895431 19.8954 0 21 0C22.1046 0 23 0.895431 23 2ZM40 4C41.1046 4 42 3.10457 42 2C42 0.895431 41.1046 0 40 0C38.8954 0 38 0.895431 38 2C38 3.10457 38.8954 4 40 4ZM61 2C61 3.10457 60.1046 4 59 4C57.8954 4 57 3.10457 57 2C57 0.895431 57.8954 0 59 0C60.1046 0 61 0.895431 61 2ZM78 4C79.1046 4 80 3.10457 80 2C80 0.895431 79.1046 0 78 0C76.8954 0 76 0.895431 76 2C76 3.10457 76.8954 4 78 4ZM99 2C99 3.10457 98.1046 4 97 4C95.8954 4 95 3.10457 95 2C95 0.895431 95.8954 0 97 0C98.1046 0 99 0.895431 99 2ZM116 4C117.105 4 118 3.10457 118 2C118 0.895431 117.105 0 116 0C114.895 0 114 0.895431 114 2C114 3.10457 114.895 4 116 4ZM4 21C4 22.1046 3.10457 23 2 23C0.895431 23 0 22.1046 0 21C0 19.8954 0.895431 19 2 19C3.10457 19 4 19.8954 4 21ZM23 21C23 22.1046 22.1046 23 21 23C19.8954 23 19 22.1046 19 21C19 19.8954 19.8954 19 21 19C22.1046 19 23 19.8954 23 21ZM40 23C41.1046 23 42 22.1046 42 21C42 19.8954 41.1046 19 40 19C38.8954 19 38 19.8954 38 21C38 22.1046 38.8954 23 40 23ZM61 21C61 22.1046 60.1046 23 59 23C57.8954 23 57 22.1046 57 21C57 19.8954 57.8954 19 59 19C60.1046 19 61 19.8954 61 21ZM78 23C79.1046 23 80 22.1046 80 21C80 19.8954 79.1046 19 78 19C76.8954 19 76 19.8954 76 21C76 22.1046 76.8954 23 78 23ZM99 21C99 22.1046 98.1046 23 97 23C95.8954 23 95 22.1046 95 21C95 19.8954 95.8954 19 97 19C98.1046 19 99 19.8954 99 21ZM116 23C117.105 23 118 22.1046 118 21C118 19.8954 117.105 19 116 19C114.895 19 114 19.8954 114 21C114 22.1046 114.895 23 116 23ZM2 42C3.10457 42 4 41.1046 4 40C4 38.8954 3.10457 38 2 38C0.895431 38 0 38.8954 0 40C0 41.1046 0.895431 42 2 42ZM21 42C22.1046 42 23 41.1046 23 40C23 38.8954 22.1046 38 21 38C19.8954 38 19 38.8954 19 40C19 41.1046 19.8954 42 21 42ZM42 40C42 41.1046 41.1046 42 40 42C38.8954 42 38 41.1046 38 40C38 38.8954 38.8954 38 40 38C41.1046 38 42 38.8954 42 40ZM59 42C60.1046 42 61 41.1046 61 40C61 38.8954 60.1046 38 59 38C57.8954 38 57 38.8954 57 40C57 41.1046 57.8954 42 59 42ZM80 40C80 41.1046 79.1046 42 78 42C76.8954 42 76 41.1046 76 40C76 38.8954 76.8954 38 78 38C79.1046 38 80 38.8954 80 40ZM97 42C98.1046 42 99 41.1046 99 40C99 38.8954 98.1046 38 97 38C95.8954 38 95 38.8954 95 40C95 41.1046 95.8954 42 97 42ZM118 40C118 41.1046 117.105 42 116 42C114.895 42 114 41.1046 114 40C114 38.8954 114.895 38 116 38C117.105 38 118 38.8954 118 40ZM4 59C4 60.1046 3.10457 61 2 61C0.895431 61 0 60.1046 0 59C0 57.8954 0.895431 57 2 57C3.10457 57 4 57.8954 4 59ZM23 59C23 60.1046 22.1046 61 21 61C19.8954 61 19 60.1046 19 59C19 57.8954 19.8954 57 21 57C22.1046 57 23 57.8954 23 59ZM40 61C41.1046 61 42 60.1046 42 59C42 57.8954 41.1046 57 40 57C38.8954 57 38 57.8954 38 59C38 60.1046 38.8954 61 40 61ZM61 59C61 60.1046 60.1046 61 59 61C57.8954 61 57 60.1046 57 59C57 57.8954 57.8954 57 59 57C60.1046 57 61 57.8954 61 59ZM78 61C79.1046 61 80 60.1046 80 59C80 57.8954 79.1046 57 78 57C76.8954 57 76 57.8954 76 59C76 60.1046 76.8954 61 78 61ZM99 59C99 60.1046 98.1046 61 97 61C95.8954 61 95 60.1046 95 59C95 57.8954 95.8954 57 97 57C98.1046 57 99 57.8954 99 59ZM116 61C117.105 61 118 60.1046 118 59C118 57.8954 117.105 57 116 57C114.895 57 114 57.8954 114 59C114 60.1046 114.895 61 116 61ZM2 80C3.10457 80 4 79.1046 4 78C4 76.8954 3.10457 76 2 76C0.895431 76 0 76.8954 0 78C0 79.1046 0.895431 80 2 80ZM21 80C22.1046 80 23 79.1046 23 78C23 76.8954 22.1046 76 21 76C19.8954 76 19 76.8954 19 78C19 79.1046 19.8954 80 21 80ZM42 78C42 79.1046 41.1046 80 40 80C38.8954 80 38 79.1046 38 78C38 76.8954 38.8954 76 40 76C41.1046 76 42 76.8954 42 78ZM59 80C60.1046 80 61 79.1046 61 78C61 76.8954 60.1046 76 59 76C57.8954 76 57 76.8954 57 78C57 79.1046 57.8954 80 59 80ZM80 78C80 79.1046 79.1046 80 78 80C76.8954 80 76 79.1046 76 78C76 76.8954 76.8954 76 78 76C79.1046 76 80 76.8954 80 78ZM97 80C98.1046 80 99 79.1046 99 78C99 76.8954 98.1046 76 97 76C95.8954 76 95 76.8954 95 78C95 79.1046 95.8954 80 97 80ZM118 78C118 79.1046 117.105 80 116 80C114.895 80 114 79.1046 114 78C114 76.8954 114.895 76 116 76C117.105 76 118 76.8954 118 78ZM4 97C4 98.1046 3.10457 99 2 99C0.895431 99 0 98.1046 0 97C0 95.8954 0.895431 95 2 95C3.10457 95 4 95.8954 4 97ZM23 97C23 98.1046 22.1046 99 21 99C19.8954 99 19 98.1046 19 97C19 95.8954 19.8954 95 21 95C22.1046 95 23 95.8954 23 97ZM40 99C41.1046 99 42 98.1046 42 97C42 95.8954 41.1046 95 40 95C38.8954 95 38 95.8954 38 97C38 98.1046 38.8954 99 40 99ZM61 97C61 98.1046 60.1046 99 59 99C57.8954 99 57 98.1046 57 97C57 95.8954 57.8954 95 59 95C60.1046 95 61 95.8954 61 97ZM78 99C79.1046 99 80 98.1046 80 97C80 95.8954 79.1046 95 78 95C76.8954 95 76 95.8954 76 97C76 98.1046 76.8954 99 78 99ZM99 97C99 98.1046 98.1046 99 97 99C95.8954 99 95 98.1046 95 97C95 95.8954 95.8954 95 97 95C98.1046 95 99 95.8954 99 97ZM116 99C117.105 99 118 98.1046 118 97C118 95.8954 117.105 95 116 95C114.895 95 114 95.8954 114 97C114 98.1046 114.895 99 116 99ZM2 118C3.10457 118 4 117.105 4 116C4 114.895 3.10457 114 2 114C0.895431 114 0 114.895 0 116C0 117.105 0.895431 118 2 118ZM21 118C22.1046 118 23 117.105 23 116C23 114.895 22.1046 114 21 114C19.8954 114 19 114.895 19 116C19 117.105 19.8954 118 21 118ZM42 116C42 117.105 41.1046 118 40 118C38.8954 118 38 117.105 38 116C38 114.895 38.8954 114 40 114C41.1046 114 42 114.895 42 116ZM59 118C60.1046 118 61 117.105 61 116C61 114.895 60.1046 114 59 114C57.8954 114 57 114.895 57 116C57 117.105 57.8954 118 59 118ZM80 116C80 117.105 79.1046 118 78 118C76.8954 118 76 117.105 76 116C76 114.895 76.8954 114 78 114C79.1046 114 80 114.895 80 116ZM97 118C98.1046 118 99 117.105 99 116C99 114.895 98.1046 114 97 114C95.8954 114 95 114.895 95 116C95 117.105 95.8954 118 97 118ZM118 116C118 117.105 117.105 118 116 118C114.895 118 114 117.105 114 116C114 114.895 114.895 114 116 114C117.105 114 118 114.895 118 116Z" fill="white"/>
</svg>
