<svg width="43" height="43" viewBox="0 0 43 43" fill="none" xmlns="http://www.w3.org/2000/svg">
<path fill-rule="evenodd" clip-rule="evenodd" d="M3 1.5C3 2.32843 2.32843 3 1.5 3C0.671573 3 0 2.32843 0 1.5C0 0.671573 0.671573 0 1.5 0C2.32843 0 3 0.671573 3 1.5ZM13 1.5C13 2.32843 12.3284 3 11.5 3C10.6716 3 10 2.32843 10 1.5C10 0.671573 10.6716 0 11.5 0C12.3284 0 13 0.671573 13 1.5ZM21.5 3C22.3284 3 23 2.32843 23 1.5C23 0.671573 22.3284 0 21.5 0C20.6716 0 20 0.671573 20 1.5C20 2.32843 20.6716 3 21.5 3ZM33 1.5C33 2.32843 32.3284 3 31.5 3C30.6716 3 30 2.32843 30 1.5C30 0.671573 30.6716 0 31.5 0C32.3284 0 33 0.671573 33 1.5ZM41.5 3C42.3284 3 43 2.32843 43 1.5C43 0.671573 42.3284 0 41.5 0C40.6716 0 40 0.671573 40 1.5C40 2.32843 40.6716 3 41.5 3ZM3 11.5C3 12.3284 2.32843 13 1.5 13C0.671573 13 0 12.3284 0 11.5C0 10.6716 0.671573 10 1.5 10C2.32843 10 3 10.6716 3 11.5ZM13 11.5C13 12.3284 12.3284 13 11.5 13C10.6716 13 10 12.3284 10 11.5C10 10.6716 10.6716 10 11.5 10C12.3284 10 13 10.6716 13 11.5ZM21.5 13C22.3284 13 23 12.3284 23 11.5C23 10.6716 22.3284 10 21.5 10C20.6716 10 20 10.6716 20 11.5C20 12.3284 20.6716 13 21.5 13ZM33 11.5C33 12.3284 32.3284 13 31.5 13C30.6716 13 30 12.3284 30 11.5C30 10.6716 30.6716 10 31.5 10C32.3284 10 33 10.6716 33 11.5ZM41.5 13C42.3284 13 43 12.3284 43 11.5C43 10.6716 42.3284 10 41.5 10C40.6716 10 40 10.6716 40 11.5C40 12.3284 40.6716 13 41.5 13ZM1.5 23C2.32843 23 3 22.3284 3 21.5C3 20.6716 2.32843 20 1.5 20C0.671573 20 0 20.6716 0 21.5C0 22.3284 0.671573 23 1.5 23ZM11.5 23C12.3284 23 13 22.3284 13 21.5C13 20.6716 12.3284 20 11.5 20C10.6716 20 10 20.6716 10 21.5C10 22.3284 10.6716 23 11.5 23ZM23 21.5C23 22.3284 22.3284 23 21.5 23C20.6716 23 20 22.3284 20 21.5C20 20.6716 20.6716 20 21.5 20C22.3284 20 23 20.6716 23 21.5ZM31.5 23C32.3284 23 33 22.3284 33 21.5C33 20.6716 32.3284 20 31.5 20C30.6716 20 30 20.6716 30 21.5C30 22.3284 30.6716 23 31.5 23ZM43 21.5C43 22.3284 42.3284 23 41.5 23C40.6716 23 40 22.3284 40 21.5C40 20.6716 40.6716 20 41.5 20C42.3284 20 43 20.6716 43 21.5ZM3 31.5C3 32.3284 2.32843 33 1.5 33C0.671573 33 0 32.3284 0 31.5C0 30.6716 0.671573 30 1.5 30C2.32843 30 3 30.6716 3 31.5ZM13 31.5C13 32.3284 12.3284 33 11.5 33C10.6716 33 10 32.3284 10 31.5C10 30.6716 10.6716 30 11.5 30C12.3284 30 13 30.6716 13 31.5ZM21.5 33C22.3284 33 23 32.3284 23 31.5C23 30.6716 22.3284 30 21.5 30C20.6716 30 20 30.6716 20 31.5C20 32.3284 20.6716 33 21.5 33ZM33 31.5C33 32.3284 32.3284 33 31.5 33C30.6716 33 30 32.3284 30 31.5C30 30.6716 30.6716 30 31.5 30C32.3284 30 33 30.6716 33 31.5ZM41.5 33C42.3284 33 43 32.3284 43 31.5C43 30.6716 42.3284 30 41.5 30C40.6716 30 40 30.6716 40 31.5C40 32.3284 40.6716 33 41.5 33ZM1.5 43C2.32843 43 3 42.3284 3 41.5C3 40.6716 2.32843 40 1.5 40C0.671573 40 0 40.6716 0 41.5C0 42.3284 0.671573 43 1.5 43ZM11.5 43C12.3284 43 13 42.3284 13 41.5C13 40.6716 12.3284 40 11.5 40C10.6716 40 10 40.6716 10 41.5C10 42.3284 10.6716 43 11.5 43ZM23 41.5C23 42.3284 22.3284 43 21.5 43C20.6716 43 20 42.3284 20 41.5C20 40.6716 20.6716 40 21.5 40C22.3284 40 23 40.6716 23 41.5ZM31.5 43C32.3284 43 33 42.3284 33 41.5C33 40.6716 32.3284 40 31.5 40C30.6716 40 30 40.6716 30 41.5C30 42.3284 30.6716 43 31.5 43ZM43 41.5C43 42.3284 42.3284 43 41.5 43C40.6716 43 40 42.3284 40 41.5C40 40.6716 40.6716 40 41.5 40C42.3284 40 43 40.6716 43 41.5Z" fill="white"/>
</svg>
