<svg width="57" height="38" viewBox="0 0 57 38" fill="none" xmlns="http://www.w3.org/2000/svg">
<path d="M51.6184 16.7619V18.5161H52.2493C52.9149 18.5161 53.4365 18.266 53.4365 17.5992C53.4365 17.1578 53.2213 16.76 52.3824 16.76C52.1198 16.76 51.9776 16.7505 51.6184 16.7619ZM49.875 22.9584V15.0417C50.2999 15.0417 52.2493 15.0417 52.4681 15.0417C54.5489 15.0417 55.2892 16.1159 55.2892 17.5764C55.2892 19.0465 54.4176 19.647 54.0036 19.863L56.2083 22.9584H54.0948L52.2603 20.2134H51.6184V22.9584H49.875Z" fill="#FF4438"/>
<path d="M47.5003 19.5523C47.5003 21.9733 46.0435 22.9584 44.4359 22.9584C42.5072 22.9584 41.167 21.7934 41.167 19.4727V15.0417H42.8822V19.0882C42.8822 20.3214 43.2356 21.261 44.4359 21.261C45.4747 21.261 45.7851 20.4578 45.7851 19.1905V15.0417H47.5003V19.5523Z" fill="#FF4438"/>
<path d="M37.2083 38H0V0H37.2083V13.0015H35.4834V1.7616H1.72309V36.2384H35.4834V24.9136H37.2083V38Z" fill="#FF4438"/>
<path d="M29.5461 22.9584L26.1006 18.2077V22.9584H24.542V15.0417H25.8712L29.3185 19.8133L29.315 15.0417H30.8718L30.8753 22.9584H29.5461Z" fill="#FF4438"/>
<path d="M33.25 15.0417H38.7917V16.7379H36.7845V22.9584H35.2556V16.7379H33.25V15.0417Z" fill="#FF4438"/>
<path d="M7.91699 15.0417H9.60071V18.4909L12.0101 15.0417H14.0302L11.2633 18.6953L14.2503 22.9584H12.1157L9.60071 19.1913V22.9584H7.91699V15.0417Z" fill="#FF4438"/>
<path d="M18.6037 21.3189C19.8773 21.3189 20.5381 20.2906 20.5381 19.0001C20.5381 17.6001 19.6857 16.6813 18.6037 16.6813C17.4935 16.6813 16.6708 17.6001 16.6708 19.0001C16.6708 20.3114 17.5315 21.3189 18.6037 21.3189ZM18.6037 15.0417C20.6439 15.0417 22.167 16.5606 22.167 19.0001C22.167 21.3189 20.6439 22.9584 18.6037 22.9584C16.5651 22.9584 15.042 21.4377 15.042 19.0001C15.042 16.7794 16.4693 15.0417 18.6037 15.0417Z" fill="#FF4438"/>
</svg>
